G04 #@! TF.GenerationSoftware,KiCad,Pcbnew,(5.1.0)-1*
G04 #@! TF.CreationDate,2019-06-21T08:53:03-04:00*
G04 #@! TF.ProjectId,TempLogger2,54656d70-4c6f-4676-9765-72322e6b6963,rev?*
G04 #@! TF.SameCoordinates,Original*
G04 #@! TF.FileFunction,Copper,L1,Top*
G04 #@! TF.FilePolarity,Positive*
%FSLAX46Y46*%
G04 Gerber Fmt 4.6, Leading zero omitted, Abs format (unit mm)*
G04 Created by KiCad (PCBNEW (5.1.0)-1) date 2019-06-21 08:53:03*
%MOMM*%
%LPD*%
G04 APERTURE LIST*
%ADD10O,1.700000X1.700000*%
%ADD11R,1.700000X1.700000*%
%ADD12C,1.600000*%
%ADD13O,1.600000X1.600000*%
%ADD14R,1.524000X1.524000*%
%ADD15C,1.524000*%
%ADD16C,1.400000*%
%ADD17C,1.650000*%
%ADD18C,1.300000*%
%ADD19R,2.500000X1.000000*%
%ADD20R,1.000000X1.800000*%
%ADD21O,1.500000X1.050000*%
%ADD22R,1.500000X1.050000*%
%ADD23R,2.600000X2.600000*%
%ADD24C,2.600000*%
%ADD25C,1.416000*%
%ADD26O,1.400000X1.400000*%
%ADD27C,1.000000*%
%ADD28C,0.300000*%
%ADD29C,0.250000*%
G04 APERTURE END LIST*
D10*
X152919000Y-83254201D03*
D11*
X152919000Y-85794201D03*
D12*
X125995000Y-94627200D03*
D13*
X125995000Y-97167200D03*
D14*
X156221000Y-94881200D03*
D15*
X156221000Y-92341200D03*
X156221000Y-89801200D03*
X156221000Y-87261200D03*
X156221000Y-84721200D03*
X156221000Y-82181200D03*
D16*
X163079000Y-99493200D03*
X163079000Y-101993200D03*
X163079000Y-104493200D03*
D17*
X158979000Y-105601200D03*
X158979000Y-112101200D03*
X154479000Y-105601200D03*
X154479000Y-112101200D03*
D18*
X150633000Y-118776200D03*
X150633000Y-121276200D03*
D19*
X145367400Y-89882600D03*
X145367400Y-91882600D03*
X145367400Y-93882600D03*
X145367400Y-95882600D03*
X145367400Y-97882600D03*
X145367400Y-99882600D03*
X145367400Y-101882600D03*
X145367400Y-103882600D03*
D20*
X142767400Y-105382600D03*
X140767400Y-105382600D03*
X138767400Y-105382600D03*
X136767400Y-105382600D03*
X134767400Y-105382600D03*
X132767400Y-105382600D03*
D19*
X130167400Y-103882600D03*
X130167400Y-101882600D03*
X130167400Y-99882600D03*
X130167400Y-97882600D03*
X130167400Y-95882600D03*
X130167400Y-93882600D03*
X130167400Y-91882600D03*
X130167400Y-89882600D03*
D21*
X134123000Y-111899200D03*
X134123000Y-110629200D03*
D22*
X134123000Y-113169200D03*
D23*
X142505000Y-108851200D03*
D24*
X142505000Y-114851200D03*
X147205000Y-111851200D03*
D25*
X133615000Y-119265200D03*
X131075000Y-119265200D03*
D26*
X153173000Y-94627200D03*
D16*
X153173000Y-92087200D03*
D26*
X149871000Y-94627200D03*
D16*
X149871000Y-92087200D03*
D13*
X162825000Y-115201200D03*
D12*
X162825000Y-112661200D03*
D13*
X154697000Y-98437200D03*
D12*
X154697000Y-100977200D03*
X150379000Y-100977200D03*
D13*
X150379000Y-98437200D03*
D16*
X129297000Y-111137200D03*
D26*
X129297000Y-113677200D03*
D11*
X156475000Y-116217200D03*
D10*
X156475000Y-118757200D03*
X156475000Y-121297200D03*
X149109000Y-83214201D03*
X149109000Y-85754201D03*
D11*
X149109000Y-88294201D03*
D18*
X151395000Y-110395200D03*
X151395000Y-112895200D03*
D27*
X148855000Y-104787200D03*
D28*
X145367400Y-103882600D02*
X147950400Y-103882600D01*
X147950400Y-103882600D02*
X148855000Y-104787200D01*
X142799000Y-109145200D02*
X142505000Y-108851200D01*
X135173000Y-111899200D02*
X134123000Y-111899200D01*
X137857000Y-111899200D02*
X135173000Y-111899200D01*
X140905000Y-108851200D02*
X137857000Y-111899200D01*
X142505000Y-108851200D02*
X140905000Y-108851200D01*
X151395000Y-111314438D02*
X151395000Y-110395200D01*
X156297762Y-116217200D02*
X151395000Y-111314438D01*
X156475000Y-116217200D02*
X156297762Y-116217200D01*
X149851000Y-108851200D02*
X142505000Y-108851200D01*
X151395000Y-110395200D02*
X149851000Y-108851200D01*
X149850000Y-122059200D02*
X150633000Y-121276200D01*
X155828370Y-100977200D02*
X154697000Y-100977200D01*
X156094002Y-100977200D02*
X155828370Y-100977200D01*
X160277990Y-105161188D02*
X156094002Y-100977200D01*
X160021002Y-94881200D02*
X157283000Y-94881200D01*
X164129001Y-98989199D02*
X160021002Y-94881200D01*
X164129001Y-104997201D02*
X164129001Y-98989199D01*
X163583001Y-105543201D02*
X164129001Y-104997201D01*
X160653000Y-105543201D02*
X163583001Y-105543201D01*
X156086999Y-100977200D02*
X160653000Y-105543201D01*
X154697000Y-100977200D02*
X156086999Y-100977200D01*
X153427000Y-94881200D02*
X153173000Y-94627200D01*
X156221000Y-94881200D02*
X153427000Y-94881200D01*
X141107998Y-122059200D02*
X149617000Y-122059200D01*
X133022999Y-110679201D02*
X133022999Y-113974201D01*
X133073000Y-110629200D02*
X133022999Y-110679201D01*
X134123000Y-110629200D02*
X133073000Y-110629200D01*
X149617000Y-122059200D02*
X149850000Y-122059200D01*
X146603000Y-122059200D02*
X149617000Y-122059200D01*
X156982999Y-82943199D02*
X156221000Y-82181200D01*
X157333001Y-83293201D02*
X156982999Y-82943199D01*
X157333001Y-94831199D02*
X157333001Y-83293201D01*
X157283000Y-94881200D02*
X157333001Y-94831199D01*
X156221000Y-94881200D02*
X157283000Y-94881200D01*
X133898000Y-110629200D02*
X134123000Y-110629200D01*
X130167400Y-106898600D02*
X133898000Y-110629200D01*
X130167400Y-103882600D02*
X130167400Y-106898600D01*
X134080999Y-120323201D02*
X136726499Y-117677701D01*
X130567159Y-120323201D02*
X134080999Y-120323201D01*
X127667380Y-117423422D02*
X130567159Y-120323201D01*
X127667380Y-99970950D02*
X127667380Y-117423422D01*
X125995000Y-98298570D02*
X127667380Y-99970950D01*
X125995000Y-97167200D02*
X125995000Y-98298570D01*
X133022999Y-113974201D02*
X136726499Y-117677701D01*
X136726499Y-117677701D02*
X141107998Y-122059200D01*
X156454000Y-121276200D02*
X156475000Y-121297200D01*
X150633000Y-121276200D02*
X156454000Y-121276200D01*
X156729000Y-121297200D02*
X156475000Y-121297200D01*
X162825000Y-115201200D02*
X156729000Y-121297200D01*
X163975001Y-105935201D02*
X163583001Y-105543201D01*
X163975001Y-114051199D02*
X163975001Y-105935201D01*
X162825000Y-115201200D02*
X163975001Y-114051199D01*
X150570999Y-91387201D02*
X149871000Y-92087200D01*
X150570999Y-83826200D02*
X150570999Y-91387201D01*
X152977998Y-81419201D02*
X150570999Y-83826200D01*
X155459001Y-81419201D02*
X152977998Y-81419201D01*
X156221000Y-82181200D02*
X155459001Y-81419201D01*
D29*
X146117400Y-99882600D02*
X145367400Y-99882600D01*
X149871000Y-96129000D02*
X146117400Y-99882600D01*
X149871000Y-94627200D02*
X149871000Y-96129000D01*
X153768999Y-84104200D02*
X152919000Y-83254201D01*
X155459001Y-85794202D02*
X153768999Y-84104200D01*
X155459001Y-86499201D02*
X155459001Y-85794202D01*
X156221000Y-87261200D02*
X155459001Y-86499201D01*
X150570999Y-93927201D02*
X149871000Y-94627200D01*
X151046009Y-93452191D02*
X150570999Y-93927201D01*
X151046009Y-85127192D02*
X151046009Y-93452191D01*
X152919000Y-83254201D02*
X151046009Y-85127192D01*
X143517400Y-105382600D02*
X142767400Y-105382600D01*
X155031001Y-106751201D02*
X144886001Y-106751201D01*
X144886001Y-106751201D02*
X143517400Y-105382600D01*
X155629001Y-105049199D02*
X155629001Y-106153201D01*
X151771802Y-101192000D02*
X155629001Y-105049199D01*
X151771802Y-94243400D02*
X151771802Y-101192000D01*
X155629001Y-106153201D02*
X155031001Y-106751201D01*
X152473001Y-93542201D02*
X151771802Y-94243400D01*
X152473001Y-92787199D02*
X152473001Y-93542201D01*
X153173000Y-92087200D02*
X152473001Y-92787199D01*
X155143370Y-89801200D02*
X156221000Y-89801200D01*
X153173000Y-92087200D02*
X153872999Y-91387201D01*
X153872999Y-87848200D02*
X153872999Y-89609201D01*
X152919000Y-86894201D02*
X153872999Y-87848200D01*
X152919000Y-85794201D02*
X152919000Y-86894201D01*
X153872999Y-91387201D02*
X153872999Y-89609201D01*
X153872999Y-89609201D02*
X153872999Y-89061199D01*
X154613000Y-89801200D02*
X156221000Y-89801200D01*
X153872999Y-89061199D02*
X154613000Y-89801200D01*
X155303999Y-112926199D02*
X154479000Y-112101200D01*
X155629001Y-113251201D02*
X155303999Y-112926199D01*
X161103629Y-113251201D02*
X155629001Y-113251201D01*
X161693630Y-112661200D02*
X161103629Y-113251201D01*
X162825000Y-112661200D02*
X161693630Y-112661200D01*
X126739600Y-93882600D02*
X125995000Y-94627200D01*
X130167400Y-93882600D02*
X126739600Y-93882600D01*
X160753000Y-104493200D02*
X154697000Y-98437200D01*
X163079000Y-104493200D02*
X160753000Y-104493200D01*
X135792399Y-89057599D02*
X144617400Y-97882600D01*
X124869999Y-92844999D02*
X128657399Y-89057599D01*
X124869999Y-95167201D02*
X124869999Y-92844999D01*
X152221812Y-100912388D02*
X152221812Y-101005600D01*
X127120001Y-97170203D02*
X127120001Y-96627199D01*
X125454999Y-95752201D02*
X124869999Y-95167201D01*
X152221812Y-101005600D02*
X156079011Y-104862799D01*
X156079011Y-104862799D02*
X156079010Y-106339602D01*
X156079010Y-106339602D02*
X155217401Y-107201211D01*
X128657399Y-89057599D02*
X135792399Y-89057599D01*
X155217401Y-107201211D02*
X142601009Y-107201211D01*
X131677401Y-98707601D02*
X128657399Y-98707601D01*
X142601009Y-107201211D02*
X141942399Y-106542601D01*
X141942399Y-104222599D02*
X141877399Y-104157599D01*
X141942399Y-106542601D02*
X141942399Y-104222599D01*
X127120001Y-96627199D02*
X126245003Y-95752201D01*
X154697000Y-98437200D02*
X152221812Y-100912388D01*
X141877399Y-104157599D02*
X137127399Y-104157599D01*
X128657399Y-98707601D02*
X127120001Y-97170203D01*
X144617400Y-97882600D02*
X145367400Y-97882600D01*
X137127399Y-104157599D02*
X131677401Y-98707601D01*
X126245003Y-95752201D02*
X125454999Y-95752201D01*
X146933600Y-101882600D02*
X145367400Y-101882600D01*
X150379000Y-98437200D02*
X146933600Y-101882600D01*
X146117400Y-91882600D02*
X145367400Y-91882600D01*
X147527010Y-90472990D02*
X146117400Y-91882600D01*
X147527010Y-87336191D02*
X147527010Y-90472990D01*
X149109000Y-85754201D02*
X147527010Y-87336191D01*
X145367400Y-89882600D02*
X146117400Y-89882600D01*
X146867400Y-89882600D02*
X145367400Y-89882600D01*
X147077000Y-89673000D02*
X146867400Y-89882600D01*
X147077000Y-85246201D02*
X147077000Y-89673000D01*
X149109000Y-83214201D02*
X147077000Y-85246201D01*
X154479000Y-105601200D02*
X151585401Y-102707601D01*
X130917400Y-89882600D02*
X130167400Y-89882600D01*
X131742401Y-90707601D02*
X130917400Y-89882600D01*
X130917400Y-95882600D02*
X131742401Y-95057599D01*
X130167400Y-95882600D02*
X130917400Y-95882600D01*
X131742401Y-95707403D02*
X131742401Y-93959799D01*
X138742599Y-102707601D02*
X131742401Y-95707403D01*
X131742401Y-93959799D02*
X131742401Y-90707601D01*
X131742401Y-95057599D02*
X131742401Y-93959799D01*
X151585401Y-102707601D02*
X138742599Y-102707601D01*
X129297000Y-114947200D02*
X133615000Y-119265200D01*
X129297000Y-113677200D02*
X129297000Y-114947200D01*
X129417400Y-99882600D02*
X130167400Y-99882600D01*
X128142390Y-101157610D02*
X129417400Y-99882600D01*
X128142390Y-116332590D02*
X128142390Y-101157610D01*
X131075000Y-119265200D02*
X128142390Y-116332590D01*
M02*
