G04 #@! TF.GenerationSoftware,KiCad,Pcbnew,(5.1.0)-1*
G04 #@! TF.CreationDate,2019-06-21T08:53:03-04:00*
G04 #@! TF.ProjectId,TempLogger2,54656d70-4c6f-4676-9765-72322e6b6963,rev?*
G04 #@! TF.SameCoordinates,Original*
G04 #@! TF.FileFunction,Legend,Top*
G04 #@! TF.FilePolarity,Positive*
%FSLAX46Y46*%
G04 Gerber Fmt 4.6, Leading zero omitted, Abs format (unit mm)*
G04 Created by KiCad (PCBNEW (5.1.0)-1) date 2019-06-21 08:53:03*
%MOMM*%
%LPD*%
G04 APERTURE LIST*
%ADD10C,0.150000*%
%ADD11C,0.100000*%
G04 APERTURE END LIST*
D10*
X148454904Y-118217390D02*
X148454904Y-118674533D01*
X148454904Y-118445961D02*
X147654904Y-118445961D01*
X147769190Y-118522152D01*
X147845380Y-118598342D01*
X147883476Y-118674533D01*
X147921571Y-117531676D02*
X148454904Y-117531676D01*
X147921571Y-117874533D02*
X148340619Y-117874533D01*
X148416809Y-117836438D01*
X148454904Y-117760247D01*
X148454904Y-117645961D01*
X148416809Y-117569771D01*
X148378714Y-117531676D01*
X148035857Y-116884057D02*
X148035857Y-117150723D01*
X148454904Y-117150723D02*
X147654904Y-117150723D01*
X147654904Y-116769771D01*
X152195190Y-88385104D02*
X152195190Y-87851771D01*
X152195190Y-87585104D02*
X152157095Y-87623200D01*
X152195190Y-87661295D01*
X152233285Y-87623200D01*
X152195190Y-87585104D01*
X152195190Y-87661295D01*
X152538047Y-87661295D02*
X152576142Y-87623200D01*
X152652333Y-87585104D01*
X152842809Y-87585104D01*
X152919000Y-87623200D01*
X152957095Y-87661295D01*
X152995190Y-87737485D01*
X152995190Y-87813676D01*
X152957095Y-87927961D01*
X152499952Y-88385104D01*
X152995190Y-88385104D01*
X153680904Y-88347009D02*
X153604714Y-88385104D01*
X153452333Y-88385104D01*
X153376142Y-88347009D01*
X153338047Y-88308914D01*
X153299952Y-88232723D01*
X153299952Y-88004152D01*
X153338047Y-87927961D01*
X153376142Y-87889866D01*
X153452333Y-87851771D01*
X153604714Y-87851771D01*
X153680904Y-87889866D01*
X151464809Y-86689580D02*
X151502904Y-86575295D01*
X151502904Y-86384819D01*
X151464809Y-86308628D01*
X151426714Y-86270533D01*
X151350523Y-86232438D01*
X151274333Y-86232438D01*
X151198142Y-86270533D01*
X151160047Y-86308628D01*
X151121952Y-86384819D01*
X151083857Y-86537200D01*
X151045761Y-86613390D01*
X151007666Y-86651485D01*
X150931476Y-86689580D01*
X150855285Y-86689580D01*
X150779095Y-86651485D01*
X150741000Y-86613390D01*
X150702904Y-86537200D01*
X150702904Y-86346723D01*
X150741000Y-86232438D01*
X151426714Y-85432438D02*
X151464809Y-85470533D01*
X151502904Y-85584819D01*
X151502904Y-85661009D01*
X151464809Y-85775295D01*
X151388619Y-85851485D01*
X151312428Y-85889580D01*
X151160047Y-85927676D01*
X151045761Y-85927676D01*
X150893380Y-85889580D01*
X150817190Y-85851485D01*
X150741000Y-85775295D01*
X150702904Y-85661009D01*
X150702904Y-85584819D01*
X150741000Y-85470533D01*
X150779095Y-85432438D01*
X151502904Y-84708628D02*
X151502904Y-85089580D01*
X150702904Y-85089580D01*
X151464809Y-84168628D02*
X151502904Y-84054342D01*
X151502904Y-83863866D01*
X151464809Y-83787676D01*
X151426714Y-83749580D01*
X151350523Y-83711485D01*
X151274333Y-83711485D01*
X151198142Y-83749580D01*
X151160047Y-83787676D01*
X151121952Y-83863866D01*
X151083857Y-84016247D01*
X151045761Y-84092438D01*
X151007666Y-84130533D01*
X150931476Y-84168628D01*
X150855285Y-84168628D01*
X150779095Y-84130533D01*
X150741000Y-84092438D01*
X150702904Y-84016247D01*
X150702904Y-83825771D01*
X150741000Y-83711485D01*
X151502904Y-83368628D02*
X150702904Y-83368628D01*
X150702904Y-83178152D01*
X150741000Y-83063866D01*
X150817190Y-82987676D01*
X150893380Y-82949580D01*
X151045761Y-82911485D01*
X151160047Y-82911485D01*
X151312428Y-82949580D01*
X151388619Y-82987676D01*
X151464809Y-83063866D01*
X151502904Y-83178152D01*
X151502904Y-83368628D01*
X151274333Y-82606723D02*
X151274333Y-82225771D01*
X151502904Y-82682914D02*
X150702904Y-82416247D01*
X151502904Y-82149580D01*
X146931000Y-88886723D02*
X146892904Y-88962914D01*
X146892904Y-89077200D01*
X146931000Y-89191485D01*
X147007190Y-89267676D01*
X147083380Y-89305771D01*
X147235761Y-89343866D01*
X147350047Y-89343866D01*
X147502428Y-89305771D01*
X147578619Y-89267676D01*
X147654809Y-89191485D01*
X147692904Y-89077200D01*
X147692904Y-89001009D01*
X147654809Y-88886723D01*
X147616714Y-88848628D01*
X147350047Y-88848628D01*
X147350047Y-89001009D01*
X147692904Y-88505771D02*
X146892904Y-88505771D01*
X147692904Y-88048628D01*
X146892904Y-88048628D01*
X147692904Y-87667676D02*
X146892904Y-87667676D01*
X146892904Y-87477200D01*
X146931000Y-87362914D01*
X147007190Y-87286723D01*
X147083380Y-87248628D01*
X147235761Y-87210533D01*
X147350047Y-87210533D01*
X147502428Y-87248628D01*
X147578619Y-87286723D01*
X147654809Y-87362914D01*
X147692904Y-87477200D01*
X147692904Y-87667676D01*
X147692904Y-86270533D02*
X147311952Y-86537200D01*
X147692904Y-86727676D02*
X146892904Y-86727676D01*
X146892904Y-86422914D01*
X146931000Y-86346723D01*
X146969095Y-86308628D01*
X147045285Y-86270533D01*
X147159571Y-86270533D01*
X147235761Y-86308628D01*
X147273857Y-86346723D01*
X147311952Y-86422914D01*
X147311952Y-86727676D01*
X146892904Y-86003866D02*
X147692904Y-85470533D01*
X146892904Y-85470533D02*
X147692904Y-86003866D01*
X147692904Y-85165771D02*
X146892904Y-85165771D01*
X146892904Y-84975295D01*
X146931000Y-84861009D01*
X147007190Y-84784819D01*
X147083380Y-84746723D01*
X147235761Y-84708628D01*
X147350047Y-84708628D01*
X147502428Y-84746723D01*
X147578619Y-84784819D01*
X147654809Y-84861009D01*
X147692904Y-84975295D01*
X147692904Y-85165771D01*
X146892904Y-84206723D02*
X146892904Y-83749580D01*
X147692904Y-83978152D02*
X146892904Y-83978152D01*
X146892904Y-83559104D02*
X147692904Y-83025771D01*
X146892904Y-83025771D02*
X147692904Y-83559104D01*
X147692904Y-82721009D02*
X146892904Y-82721009D01*
X146892904Y-82530533D01*
X146931000Y-82416247D01*
X147007190Y-82340057D01*
X147083380Y-82301961D01*
X147235761Y-82263866D01*
X147350047Y-82263866D01*
X147502428Y-82301961D01*
X147578619Y-82340057D01*
X147654809Y-82416247D01*
X147692904Y-82530533D01*
X147692904Y-82721009D01*
X157072047Y-94443104D02*
X157567285Y-94443104D01*
X157300619Y-94747866D01*
X157414904Y-94747866D01*
X157491095Y-94785961D01*
X157529190Y-94824057D01*
X157567285Y-94900247D01*
X157567285Y-95090723D01*
X157529190Y-95166914D01*
X157491095Y-95205009D01*
X157414904Y-95243104D01*
X157186333Y-95243104D01*
X157110142Y-95205009D01*
X157072047Y-95166914D01*
X157910142Y-95166914D02*
X157948238Y-95205009D01*
X157910142Y-95243104D01*
X157872047Y-95205009D01*
X157910142Y-95166914D01*
X157910142Y-95243104D01*
X158214904Y-94443104D02*
X158710142Y-94443104D01*
X158443476Y-94747866D01*
X158557761Y-94747866D01*
X158633952Y-94785961D01*
X158672047Y-94824057D01*
X158710142Y-94900247D01*
X158710142Y-95090723D01*
X158672047Y-95166914D01*
X158633952Y-95205009D01*
X158557761Y-95243104D01*
X158329190Y-95243104D01*
X158253000Y-95205009D01*
X158214904Y-95166914D01*
X158938714Y-94443104D02*
X159205380Y-95243104D01*
X159472047Y-94443104D01*
X157643476Y-91941200D02*
X157567285Y-91903104D01*
X157453000Y-91903104D01*
X157338714Y-91941200D01*
X157262523Y-92017390D01*
X157224428Y-92093580D01*
X157186333Y-92245961D01*
X157186333Y-92360247D01*
X157224428Y-92512628D01*
X157262523Y-92588819D01*
X157338714Y-92665009D01*
X157453000Y-92703104D01*
X157529190Y-92703104D01*
X157643476Y-92665009D01*
X157681571Y-92626914D01*
X157681571Y-92360247D01*
X157529190Y-92360247D01*
X158024428Y-92703104D02*
X158024428Y-91903104D01*
X158481571Y-92703104D01*
X158481571Y-91903104D01*
X158862523Y-92703104D02*
X158862523Y-91903104D01*
X159053000Y-91903104D01*
X159167285Y-91941200D01*
X159243476Y-92017390D01*
X159281571Y-92093580D01*
X159319666Y-92245961D01*
X159319666Y-92360247D01*
X159281571Y-92512628D01*
X159243476Y-92588819D01*
X159167285Y-92665009D01*
X159053000Y-92703104D01*
X158862523Y-92703104D01*
X157300619Y-90125009D02*
X157414904Y-90163104D01*
X157605380Y-90163104D01*
X157681571Y-90125009D01*
X157719666Y-90086914D01*
X157757761Y-90010723D01*
X157757761Y-89934533D01*
X157719666Y-89858342D01*
X157681571Y-89820247D01*
X157605380Y-89782152D01*
X157453000Y-89744057D01*
X157376809Y-89705961D01*
X157338714Y-89667866D01*
X157300619Y-89591676D01*
X157300619Y-89515485D01*
X157338714Y-89439295D01*
X157376809Y-89401200D01*
X157453000Y-89363104D01*
X157643476Y-89363104D01*
X157757761Y-89401200D01*
X158557761Y-90086914D02*
X158519666Y-90125009D01*
X158405380Y-90163104D01*
X158329190Y-90163104D01*
X158214904Y-90125009D01*
X158138714Y-90048819D01*
X158100619Y-89972628D01*
X158062523Y-89820247D01*
X158062523Y-89705961D01*
X158100619Y-89553580D01*
X158138714Y-89477390D01*
X158214904Y-89401200D01*
X158329190Y-89363104D01*
X158405380Y-89363104D01*
X158519666Y-89401200D01*
X158557761Y-89439295D01*
X159281571Y-90163104D02*
X158900619Y-90163104D01*
X158900619Y-89363104D01*
X157281571Y-87585009D02*
X157395857Y-87623104D01*
X157586333Y-87623104D01*
X157662523Y-87585009D01*
X157700619Y-87546914D01*
X157738714Y-87470723D01*
X157738714Y-87394533D01*
X157700619Y-87318342D01*
X157662523Y-87280247D01*
X157586333Y-87242152D01*
X157433952Y-87204057D01*
X157357761Y-87165961D01*
X157319666Y-87127866D01*
X157281571Y-87051676D01*
X157281571Y-86975485D01*
X157319666Y-86899295D01*
X157357761Y-86861200D01*
X157433952Y-86823104D01*
X157624428Y-86823104D01*
X157738714Y-86861200D01*
X158081571Y-87623104D02*
X158081571Y-86823104D01*
X158272047Y-86823104D01*
X158386333Y-86861200D01*
X158462523Y-86937390D01*
X158500619Y-87013580D01*
X158538714Y-87165961D01*
X158538714Y-87280247D01*
X158500619Y-87432628D01*
X158462523Y-87508819D01*
X158386333Y-87585009D01*
X158272047Y-87623104D01*
X158081571Y-87623104D01*
X158843476Y-87394533D02*
X159224428Y-87394533D01*
X158767285Y-87623104D02*
X159033952Y-86823104D01*
X159300619Y-87623104D01*
X157072047Y-81743104D02*
X157567285Y-81743104D01*
X157300619Y-82047866D01*
X157414904Y-82047866D01*
X157491095Y-82085961D01*
X157529190Y-82124057D01*
X157567285Y-82200247D01*
X157567285Y-82390723D01*
X157529190Y-82466914D01*
X157491095Y-82505009D01*
X157414904Y-82543104D01*
X157186333Y-82543104D01*
X157110142Y-82505009D01*
X157072047Y-82466914D01*
X157910142Y-82466914D02*
X157948238Y-82505009D01*
X157910142Y-82543104D01*
X157872047Y-82505009D01*
X157910142Y-82466914D01*
X157910142Y-82543104D01*
X158214904Y-81743104D02*
X158710142Y-81743104D01*
X158443476Y-82047866D01*
X158557761Y-82047866D01*
X158633952Y-82085961D01*
X158672047Y-82124057D01*
X158710142Y-82200247D01*
X158710142Y-82390723D01*
X158672047Y-82466914D01*
X158633952Y-82505009D01*
X158557761Y-82543104D01*
X158329190Y-82543104D01*
X158253000Y-82505009D01*
X158214904Y-82466914D01*
X158938714Y-81743104D02*
X159205380Y-82543104D01*
X159472047Y-81743104D01*
X160900904Y-110133390D02*
X160100904Y-110133390D01*
X160100904Y-109828628D01*
X160139000Y-109752438D01*
X160177095Y-109714342D01*
X160253285Y-109676247D01*
X160367571Y-109676247D01*
X160443761Y-109714342D01*
X160481857Y-109752438D01*
X160519952Y-109828628D01*
X160519952Y-110133390D01*
X160900904Y-109333390D02*
X160367571Y-109333390D01*
X160519952Y-109333390D02*
X160443761Y-109295295D01*
X160405666Y-109257200D01*
X160367571Y-109181009D01*
X160367571Y-109104819D01*
X160900904Y-108723866D02*
X160862809Y-108800057D01*
X160824714Y-108838152D01*
X160748523Y-108876247D01*
X160519952Y-108876247D01*
X160443761Y-108838152D01*
X160405666Y-108800057D01*
X160367571Y-108723866D01*
X160367571Y-108609580D01*
X160405666Y-108533390D01*
X160443761Y-108495295D01*
X160519952Y-108457200D01*
X160748523Y-108457200D01*
X160824714Y-108495295D01*
X160862809Y-108533390D01*
X160900904Y-108609580D01*
X160900904Y-108723866D01*
X160367571Y-107771485D02*
X161015190Y-107771485D01*
X161091380Y-107809580D01*
X161129476Y-107847676D01*
X161167571Y-107923866D01*
X161167571Y-108038152D01*
X161129476Y-108114342D01*
X160862809Y-107771485D02*
X160900904Y-107847676D01*
X160900904Y-108000057D01*
X160862809Y-108076247D01*
X160824714Y-108114342D01*
X160748523Y-108152438D01*
X160519952Y-108152438D01*
X160443761Y-108114342D01*
X160405666Y-108076247D01*
X160367571Y-108000057D01*
X160367571Y-107847676D01*
X160405666Y-107771485D01*
X160900904Y-107390533D02*
X160367571Y-107390533D01*
X160519952Y-107390533D02*
X160443761Y-107352438D01*
X160405666Y-107314342D01*
X160367571Y-107238152D01*
X160367571Y-107161961D01*
X160900904Y-106552438D02*
X160481857Y-106552438D01*
X160405666Y-106590533D01*
X160367571Y-106666723D01*
X160367571Y-106819104D01*
X160405666Y-106895295D01*
X160862809Y-106552438D02*
X160900904Y-106628628D01*
X160900904Y-106819104D01*
X160862809Y-106895295D01*
X160786619Y-106933390D01*
X160710428Y-106933390D01*
X160634238Y-106895295D01*
X160596142Y-106819104D01*
X160596142Y-106628628D01*
X160558047Y-106552438D01*
X160900904Y-106171485D02*
X160367571Y-106171485D01*
X160443761Y-106171485D02*
X160405666Y-106133390D01*
X160367571Y-106057200D01*
X160367571Y-105942914D01*
X160405666Y-105866723D01*
X160481857Y-105828628D01*
X160900904Y-105828628D01*
X160481857Y-105828628D02*
X160405666Y-105790533D01*
X160367571Y-105714342D01*
X160367571Y-105600057D01*
X160405666Y-105523866D01*
X160481857Y-105485771D01*
X160900904Y-105485771D01*
X161205666Y-104876247D02*
X161167571Y-104914342D01*
X161053285Y-104990533D01*
X160977095Y-105028628D01*
X160862809Y-105066723D01*
X160672333Y-105104819D01*
X160519952Y-105104819D01*
X160329476Y-105066723D01*
X160215190Y-105028628D01*
X160139000Y-104990533D01*
X160024714Y-104914342D01*
X159986619Y-104876247D01*
X160139000Y-104152438D02*
X160100904Y-104228628D01*
X160100904Y-104342914D01*
X160139000Y-104457200D01*
X160215190Y-104533390D01*
X160291380Y-104571485D01*
X160443761Y-104609580D01*
X160558047Y-104609580D01*
X160710428Y-104571485D01*
X160786619Y-104533390D01*
X160862809Y-104457200D01*
X160900904Y-104342914D01*
X160900904Y-104266723D01*
X160862809Y-104152438D01*
X160824714Y-104114342D01*
X160558047Y-104114342D01*
X160558047Y-104266723D01*
X160900904Y-103771485D02*
X160100904Y-103771485D01*
X160900904Y-103314342D01*
X160100904Y-103314342D01*
X160900904Y-102933390D02*
X160100904Y-102933390D01*
X160100904Y-102742914D01*
X160139000Y-102628628D01*
X160215190Y-102552438D01*
X160291380Y-102514342D01*
X160443761Y-102476247D01*
X160558047Y-102476247D01*
X160710428Y-102514342D01*
X160786619Y-102552438D01*
X160862809Y-102628628D01*
X160900904Y-102742914D01*
X160900904Y-102933390D01*
X161205666Y-102209580D02*
X161167571Y-102171485D01*
X161053285Y-102095295D01*
X160977095Y-102057200D01*
X160862809Y-102019104D01*
X160672333Y-101981009D01*
X160519952Y-101981009D01*
X160329476Y-102019104D01*
X160215190Y-102057200D01*
X160139000Y-102095295D01*
X160024714Y-102171485D01*
X159986619Y-102209580D01*
X160900904Y-100621295D02*
X160519952Y-100887961D01*
X160900904Y-101078438D02*
X160100904Y-101078438D01*
X160100904Y-100773676D01*
X160139000Y-100697485D01*
X160177095Y-100659390D01*
X160253285Y-100621295D01*
X160367571Y-100621295D01*
X160443761Y-100659390D01*
X160481857Y-100697485D01*
X160519952Y-100773676D01*
X160519952Y-101078438D01*
X160367571Y-99935580D02*
X160900904Y-99935580D01*
X160367571Y-100278438D02*
X160786619Y-100278438D01*
X160862809Y-100240342D01*
X160900904Y-100164152D01*
X160900904Y-100049866D01*
X160862809Y-99973676D01*
X160824714Y-99935580D01*
X160367571Y-99554628D02*
X160900904Y-99554628D01*
X160443761Y-99554628D02*
X160405666Y-99516533D01*
X160367571Y-99440342D01*
X160367571Y-99326057D01*
X160405666Y-99249866D01*
X160481857Y-99211771D01*
X160900904Y-99211771D01*
X161205666Y-98602247D02*
X161167571Y-98640342D01*
X161053285Y-98716533D01*
X160977095Y-98754628D01*
X160862809Y-98792723D01*
X160672333Y-98830819D01*
X160519952Y-98830819D01*
X160329476Y-98792723D01*
X160215190Y-98754628D01*
X160139000Y-98716533D01*
X160024714Y-98640342D01*
X159986619Y-98602247D01*
X160900904Y-98183200D02*
X160862809Y-98259390D01*
X160824714Y-98297485D01*
X160748523Y-98335580D01*
X160519952Y-98335580D01*
X160443761Y-98297485D01*
X160405666Y-98259390D01*
X160367571Y-98183200D01*
X160367571Y-98068914D01*
X160405666Y-97992723D01*
X160443761Y-97954628D01*
X160519952Y-97916533D01*
X160748523Y-97916533D01*
X160824714Y-97954628D01*
X160862809Y-97992723D01*
X160900904Y-98068914D01*
X160900904Y-98183200D01*
X160367571Y-97573676D02*
X161167571Y-97573676D01*
X160405666Y-97573676D02*
X160367571Y-97497485D01*
X160367571Y-97345104D01*
X160405666Y-97268914D01*
X160443761Y-97230819D01*
X160519952Y-97192723D01*
X160748523Y-97192723D01*
X160824714Y-97230819D01*
X160862809Y-97268914D01*
X160900904Y-97345104D01*
X160900904Y-97497485D01*
X160862809Y-97573676D01*
X160862809Y-96545104D02*
X160900904Y-96621295D01*
X160900904Y-96773676D01*
X160862809Y-96849866D01*
X160786619Y-96887961D01*
X160481857Y-96887961D01*
X160405666Y-96849866D01*
X160367571Y-96773676D01*
X160367571Y-96621295D01*
X160405666Y-96545104D01*
X160481857Y-96507009D01*
X160558047Y-96507009D01*
X160634238Y-96887961D01*
X160367571Y-96164152D02*
X160900904Y-96164152D01*
X160443761Y-96164152D02*
X160405666Y-96126057D01*
X160367571Y-96049866D01*
X160367571Y-95935580D01*
X160405666Y-95859390D01*
X160481857Y-95821295D01*
X160900904Y-95821295D01*
X161205666Y-95516533D02*
X161167571Y-95478438D01*
X161053285Y-95402247D01*
X160977095Y-95364152D01*
X160862809Y-95326057D01*
X160672333Y-95287961D01*
X160519952Y-95287961D01*
X160329476Y-95326057D01*
X160215190Y-95364152D01*
X160139000Y-95402247D01*
X160024714Y-95478438D01*
X159986619Y-95516533D01*
X136478904Y-122661961D02*
X136478904Y-123042914D01*
X136859857Y-123081009D01*
X136821761Y-123042914D01*
X136783666Y-122966723D01*
X136783666Y-122776247D01*
X136821761Y-122700057D01*
X136859857Y-122661961D01*
X136936047Y-122623866D01*
X137126523Y-122623866D01*
X137202714Y-122661961D01*
X137240809Y-122700057D01*
X137278904Y-122776247D01*
X137278904Y-122966723D01*
X137240809Y-123042914D01*
X137202714Y-123081009D01*
X136478904Y-122395295D02*
X137278904Y-122128628D01*
X136478904Y-121861961D01*
X136859857Y-120719104D02*
X136897952Y-120604819D01*
X136936047Y-120566723D01*
X137012238Y-120528628D01*
X137126523Y-120528628D01*
X137202714Y-120566723D01*
X137240809Y-120604819D01*
X137278904Y-120681009D01*
X137278904Y-120985771D01*
X136478904Y-120985771D01*
X136478904Y-120719104D01*
X136517000Y-120642914D01*
X136555095Y-120604819D01*
X136631285Y-120566723D01*
X136707476Y-120566723D01*
X136783666Y-120604819D01*
X136821761Y-120642914D01*
X136859857Y-120719104D01*
X136859857Y-120985771D01*
X137278904Y-119842914D02*
X136859857Y-119842914D01*
X136783666Y-119881009D01*
X136745571Y-119957200D01*
X136745571Y-120109580D01*
X136783666Y-120185771D01*
X137240809Y-119842914D02*
X137278904Y-119919104D01*
X137278904Y-120109580D01*
X137240809Y-120185771D01*
X137164619Y-120223866D01*
X137088428Y-120223866D01*
X137012238Y-120185771D01*
X136974142Y-120109580D01*
X136974142Y-119919104D01*
X136936047Y-119842914D01*
X137278904Y-119461961D02*
X136745571Y-119461961D01*
X136897952Y-119461961D02*
X136821761Y-119423866D01*
X136783666Y-119385771D01*
X136745571Y-119309580D01*
X136745571Y-119233390D01*
X137278904Y-118966723D02*
X136745571Y-118966723D01*
X136897952Y-118966723D02*
X136821761Y-118928628D01*
X136783666Y-118890533D01*
X136745571Y-118814342D01*
X136745571Y-118738152D01*
X137240809Y-118166723D02*
X137278904Y-118242914D01*
X137278904Y-118395295D01*
X137240809Y-118471485D01*
X137164619Y-118509580D01*
X136859857Y-118509580D01*
X136783666Y-118471485D01*
X136745571Y-118395295D01*
X136745571Y-118242914D01*
X136783666Y-118166723D01*
X136859857Y-118128628D01*
X136936047Y-118128628D01*
X137012238Y-118509580D01*
X137278904Y-117671485D02*
X137240809Y-117747676D01*
X137164619Y-117785771D01*
X136478904Y-117785771D01*
X136478904Y-116528628D02*
X137050333Y-116528628D01*
X137164619Y-116566723D01*
X137240809Y-116642914D01*
X137278904Y-116757200D01*
X137278904Y-116833390D01*
X137278904Y-115804819D02*
X136859857Y-115804819D01*
X136783666Y-115842914D01*
X136745571Y-115919104D01*
X136745571Y-116071485D01*
X136783666Y-116147676D01*
X137240809Y-115804819D02*
X137278904Y-115881009D01*
X137278904Y-116071485D01*
X137240809Y-116147676D01*
X137164619Y-116185771D01*
X137088428Y-116185771D01*
X137012238Y-116147676D01*
X136974142Y-116071485D01*
X136974142Y-115881009D01*
X136936047Y-115804819D01*
X137240809Y-115081009D02*
X137278904Y-115157200D01*
X137278904Y-115309580D01*
X137240809Y-115385771D01*
X137202714Y-115423866D01*
X137126523Y-115461961D01*
X136897952Y-115461961D01*
X136821761Y-115423866D01*
X136783666Y-115385771D01*
X136745571Y-115309580D01*
X136745571Y-115157200D01*
X136783666Y-115081009D01*
X137278904Y-114738152D02*
X136478904Y-114738152D01*
X136974142Y-114661961D02*
X137278904Y-114433390D01*
X136745571Y-114433390D02*
X137050333Y-114738152D01*
X148962904Y-109581390D02*
X148962904Y-110038533D01*
X148962904Y-109809961D02*
X148162904Y-109809961D01*
X148277190Y-109886152D01*
X148353380Y-109962342D01*
X148391476Y-110038533D01*
X148429571Y-108895676D02*
X148962904Y-108895676D01*
X148429571Y-109238533D02*
X148848619Y-109238533D01*
X148924809Y-109200438D01*
X148962904Y-109124247D01*
X148962904Y-109009961D01*
X148924809Y-108933771D01*
X148886714Y-108895676D01*
X148543857Y-108248057D02*
X148543857Y-108514723D01*
X148962904Y-108514723D02*
X148162904Y-108514723D01*
X148162904Y-108133771D01*
X153579476Y-118357200D02*
X153503285Y-118319104D01*
X153389000Y-118319104D01*
X153274714Y-118357200D01*
X153198523Y-118433390D01*
X153160428Y-118509580D01*
X153122333Y-118661961D01*
X153122333Y-118776247D01*
X153160428Y-118928628D01*
X153198523Y-119004819D01*
X153274714Y-119081009D01*
X153389000Y-119119104D01*
X153465190Y-119119104D01*
X153579476Y-119081009D01*
X153617571Y-119042914D01*
X153617571Y-118776247D01*
X153465190Y-118776247D01*
X153960428Y-119119104D02*
X153960428Y-118319104D01*
X154417571Y-119119104D01*
X154417571Y-118319104D01*
X154798523Y-119119104D02*
X154798523Y-118319104D01*
X154989000Y-118319104D01*
X155103285Y-118357200D01*
X155179476Y-118433390D01*
X155217571Y-118509580D01*
X155255666Y-118661961D01*
X155255666Y-118776247D01*
X155217571Y-118928628D01*
X155179476Y-119004819D01*
X155103285Y-119081009D01*
X154989000Y-119119104D01*
X154798523Y-119119104D01*
X153008047Y-120859104D02*
X153503285Y-120859104D01*
X153236619Y-121163866D01*
X153350904Y-121163866D01*
X153427095Y-121201961D01*
X153465190Y-121240057D01*
X153503285Y-121316247D01*
X153503285Y-121506723D01*
X153465190Y-121582914D01*
X153427095Y-121621009D01*
X153350904Y-121659104D01*
X153122333Y-121659104D01*
X153046142Y-121621009D01*
X153008047Y-121582914D01*
X153846142Y-121582914D02*
X153884238Y-121621009D01*
X153846142Y-121659104D01*
X153808047Y-121621009D01*
X153846142Y-121582914D01*
X153846142Y-121659104D01*
X154150904Y-120859104D02*
X154646142Y-120859104D01*
X154379476Y-121163866D01*
X154493761Y-121163866D01*
X154569952Y-121201961D01*
X154608047Y-121240057D01*
X154646142Y-121316247D01*
X154646142Y-121506723D01*
X154608047Y-121582914D01*
X154569952Y-121621009D01*
X154493761Y-121659104D01*
X154265190Y-121659104D01*
X154189000Y-121621009D01*
X154150904Y-121582914D01*
X154874714Y-120859104D02*
X155141380Y-121659104D01*
X155408047Y-120859104D01*
X153782619Y-115779104D02*
X153401666Y-115779104D01*
X153363571Y-116160057D01*
X153401666Y-116121961D01*
X153477857Y-116083866D01*
X153668333Y-116083866D01*
X153744523Y-116121961D01*
X153782619Y-116160057D01*
X153820714Y-116236247D01*
X153820714Y-116426723D01*
X153782619Y-116502914D01*
X153744523Y-116541009D01*
X153668333Y-116579104D01*
X153477857Y-116579104D01*
X153401666Y-116541009D01*
X153363571Y-116502914D01*
X154049285Y-115779104D02*
X154315952Y-116579104D01*
X154582619Y-115779104D01*
X127701000Y-115506200D02*
G75*
G03X127701000Y-115506200I-2615000J0D01*
G01*
X166152400Y-90506200D02*
G75*
G03X166152400Y-90506200I-2615000J0D01*
G01*
X160226000Y-86765676D02*
X160187904Y-86841866D01*
X160187904Y-86956152D01*
X160226000Y-87070438D01*
X160302190Y-87146628D01*
X160378380Y-87184723D01*
X160530761Y-87222819D01*
X160645047Y-87222819D01*
X160797428Y-87184723D01*
X160873619Y-87146628D01*
X160949809Y-87070438D01*
X160987904Y-86956152D01*
X160987904Y-86879961D01*
X160949809Y-86765676D01*
X160911714Y-86727580D01*
X160645047Y-86727580D01*
X160645047Y-86879961D01*
X160606952Y-86232342D02*
X160987904Y-86232342D01*
X160187904Y-86499009D02*
X160606952Y-86232342D01*
X160187904Y-85965676D01*
X160683142Y-85699009D02*
X160683142Y-85089485D01*
X160568857Y-84441866D02*
X160606952Y-84327580D01*
X160645047Y-84289485D01*
X160721238Y-84251390D01*
X160835523Y-84251390D01*
X160911714Y-84289485D01*
X160949809Y-84327580D01*
X160987904Y-84403771D01*
X160987904Y-84708533D01*
X160187904Y-84708533D01*
X160187904Y-84441866D01*
X160226000Y-84365676D01*
X160264095Y-84327580D01*
X160340285Y-84289485D01*
X160416476Y-84289485D01*
X160492666Y-84327580D01*
X160530761Y-84365676D01*
X160568857Y-84441866D01*
X160568857Y-84708533D01*
X160987904Y-83489485D02*
X160987904Y-83946628D01*
X160987904Y-83718057D02*
X160187904Y-83718057D01*
X160302190Y-83794247D01*
X160378380Y-83870438D01*
X160416476Y-83946628D01*
X160987904Y-82727580D02*
X160987904Y-83184723D01*
X160987904Y-82956152D02*
X160187904Y-82956152D01*
X160302190Y-83032342D01*
X160378380Y-83108533D01*
X160416476Y-83184723D01*
X162642666Y-87946628D02*
X162604571Y-87984723D01*
X162490285Y-88060914D01*
X162414095Y-88099009D01*
X162299809Y-88137104D01*
X162109333Y-88175200D01*
X161956952Y-88175200D01*
X161766476Y-88137104D01*
X161652190Y-88099009D01*
X161576000Y-88060914D01*
X161461714Y-87984723D01*
X161423619Y-87946628D01*
X161918857Y-87375200D02*
X161956952Y-87260914D01*
X161995047Y-87222819D01*
X162071238Y-87184723D01*
X162185523Y-87184723D01*
X162261714Y-87222819D01*
X162299809Y-87260914D01*
X162337904Y-87337104D01*
X162337904Y-87641866D01*
X161537904Y-87641866D01*
X161537904Y-87375200D01*
X161576000Y-87299009D01*
X161614095Y-87260914D01*
X161690285Y-87222819D01*
X161766476Y-87222819D01*
X161842666Y-87260914D01*
X161880761Y-87299009D01*
X161918857Y-87375200D01*
X161918857Y-87641866D01*
X162337904Y-86841866D02*
X161537904Y-86841866D01*
X162109333Y-86575200D01*
X161537904Y-86308533D01*
X162337904Y-86308533D01*
X161918857Y-85927580D02*
X161918857Y-85660914D01*
X162337904Y-85546628D02*
X162337904Y-85927580D01*
X161537904Y-85927580D01*
X161537904Y-85546628D01*
X162033142Y-85203771D02*
X162033142Y-84594247D01*
X161614095Y-84251390D02*
X161576000Y-84213295D01*
X161537904Y-84137104D01*
X161537904Y-83946628D01*
X161576000Y-83870438D01*
X161614095Y-83832342D01*
X161690285Y-83794247D01*
X161766476Y-83794247D01*
X161880761Y-83832342D01*
X162337904Y-84289485D01*
X162337904Y-83794247D01*
X161880761Y-83337104D02*
X161842666Y-83413295D01*
X161804571Y-83451390D01*
X161728380Y-83489485D01*
X161690285Y-83489485D01*
X161614095Y-83451390D01*
X161576000Y-83413295D01*
X161537904Y-83337104D01*
X161537904Y-83184723D01*
X161576000Y-83108533D01*
X161614095Y-83070438D01*
X161690285Y-83032342D01*
X161728380Y-83032342D01*
X161804571Y-83070438D01*
X161842666Y-83108533D01*
X161880761Y-83184723D01*
X161880761Y-83337104D01*
X161918857Y-83413295D01*
X161956952Y-83451390D01*
X162033142Y-83489485D01*
X162185523Y-83489485D01*
X162261714Y-83451390D01*
X162299809Y-83413295D01*
X162337904Y-83337104D01*
X162337904Y-83184723D01*
X162299809Y-83108533D01*
X162261714Y-83070438D01*
X162185523Y-83032342D01*
X162033142Y-83032342D01*
X161956952Y-83070438D01*
X161918857Y-83108533D01*
X161880761Y-83184723D01*
X161537904Y-82537104D02*
X161537904Y-82460914D01*
X161576000Y-82384723D01*
X161614095Y-82346628D01*
X161690285Y-82308533D01*
X161842666Y-82270438D01*
X162033142Y-82270438D01*
X162185523Y-82308533D01*
X162261714Y-82346628D01*
X162299809Y-82384723D01*
X162337904Y-82460914D01*
X162337904Y-82537104D01*
X162299809Y-82613295D01*
X162261714Y-82651390D01*
X162185523Y-82689485D01*
X162033142Y-82727580D01*
X161842666Y-82727580D01*
X161690285Y-82689485D01*
X161614095Y-82651390D01*
X161576000Y-82613295D01*
X161537904Y-82537104D01*
X162642666Y-82003771D02*
X162604571Y-81965676D01*
X162490285Y-81889485D01*
X162414095Y-81851390D01*
X162299809Y-81813295D01*
X162109333Y-81775200D01*
X161956952Y-81775200D01*
X161766476Y-81813295D01*
X161652190Y-81851390D01*
X161576000Y-81889485D01*
X161461714Y-81965676D01*
X161423619Y-82003771D01*
D11*
X154249000Y-87124201D02*
X152919000Y-87124201D01*
X154249000Y-85794201D02*
X154249000Y-87124201D01*
X154249000Y-84524201D02*
X151589000Y-84524201D01*
X151589000Y-84524201D02*
X151589000Y-81924201D01*
X154249000Y-84524201D02*
X154249000Y-81924201D01*
X154249000Y-81924201D02*
X151589000Y-81924201D01*
X127365000Y-94627200D02*
G75*
G03X127365000Y-94627200I-1370000J0D01*
G01*
X125995000Y-95997200D02*
X125995000Y-96067200D01*
X155031000Y-95531200D02*
X155031000Y-81531200D01*
X155031000Y-81531200D02*
X165031000Y-81531200D01*
X165031000Y-81531200D02*
X165031000Y-95531200D01*
X165031000Y-95531200D02*
X155031000Y-95531200D01*
X160310490Y-104636200D02*
G75*
G03X160310490Y-104636200I-322820J0D01*
G01*
X165079000Y-107793200D02*
X161079000Y-107793200D01*
X165079000Y-96193200D02*
X165079000Y-107793200D01*
X161079000Y-96193200D02*
X165079000Y-96193200D01*
X161079000Y-107793200D02*
X161079000Y-96193200D01*
X154021000Y-113244200D02*
G75*
G03X154021000Y-113244200I-84000J0D01*
G01*
X157813000Y-111851200D02*
X155656000Y-111851200D01*
X157813000Y-105851200D02*
X155656000Y-105851200D01*
X153729000Y-106488200D02*
X153729000Y-111112200D01*
X159729000Y-106488200D02*
X159729000Y-111112200D01*
X151883000Y-122026200D02*
X149383000Y-122026200D01*
X151883000Y-118026200D02*
X151883000Y-122026200D01*
X149383000Y-118026200D02*
X151883000Y-118026200D01*
X149383000Y-122026200D02*
X149383000Y-118026200D01*
X129647400Y-88882600D02*
X129037400Y-88882600D01*
X129647400Y-88882600D02*
X129647400Y-81262600D01*
X129647400Y-105502600D02*
X129647400Y-104882600D01*
X131767400Y-105502600D02*
X129647400Y-105502600D01*
X145887400Y-105502600D02*
X143767400Y-105502600D01*
X145887400Y-104882600D02*
X145887400Y-105502600D01*
X145887400Y-81262600D02*
X145887400Y-88882600D01*
X129647400Y-81262600D02*
X145887400Y-81262600D01*
X135973000Y-113699200D02*
X135973000Y-110099200D01*
X135961478Y-113737678D02*
G75*
G02X131523000Y-111899200I-1838478J1838478D01*
G01*
X135961478Y-110060722D02*
G75*
G03X131523000Y-111899200I-1838478J-1838478D01*
G01*
X147105000Y-113651200D02*
X147105000Y-122651200D01*
X147105000Y-122651200D02*
X137905000Y-122651200D01*
X137905000Y-122651200D02*
X137905000Y-108051200D01*
X137905000Y-108051200D02*
X140705000Y-108051200D01*
X144305000Y-108051200D02*
X147105000Y-108051200D01*
X147105000Y-108051200D02*
X147105000Y-110051200D01*
X137665000Y-109551200D02*
X137665000Y-107811200D01*
X137665000Y-107811200D02*
X139405000Y-107811200D01*
X135295000Y-119265200D02*
X135295000Y-119265200D01*
X129395000Y-119265200D02*
X129395000Y-119265200D01*
X134615000Y-117415200D02*
X134615000Y-121115200D01*
X135815000Y-119165200D02*
X135815000Y-119165200D01*
X135815000Y-119365200D02*
X135815000Y-119365200D01*
X141195000Y-119265200D02*
G75*
G02X135295000Y-119265200I-2950000J0D01*
G01*
X147095000Y-119265200D02*
G75*
G02X129395000Y-119265200I-8850000J0D01*
G01*
X136215000Y-119365200D02*
G75*
G02X135815000Y-119165200I-200000J100000D01*
G01*
X136215000Y-119165200D02*
G75*
G02X135815000Y-119365200I-200000J-100000D01*
G01*
X153173000Y-93007200D02*
X153173000Y-93627200D01*
X154093000Y-92087200D02*
G75*
G03X154093000Y-92087200I-920000J0D01*
G01*
X149871000Y-93007200D02*
X149871000Y-93627200D01*
X150791000Y-92087200D02*
G75*
G03X150791000Y-92087200I-920000J0D01*
G01*
X162825000Y-114031200D02*
X162825000Y-114101200D01*
X164195000Y-112661200D02*
G75*
G03X164195000Y-112661200I-1370000J0D01*
G01*
X154697000Y-99607200D02*
X154697000Y-99537200D01*
X156067000Y-100977200D02*
G75*
G03X156067000Y-100977200I-1370000J0D01*
G01*
X151749000Y-100977200D02*
G75*
G03X151749000Y-100977200I-1370000J0D01*
G01*
X150379000Y-99607200D02*
X150379000Y-99537200D01*
X130217000Y-111137200D02*
G75*
G03X130217000Y-111137200I-920000J0D01*
G01*
X129297000Y-112057200D02*
X129297000Y-112677200D01*
X155145000Y-122627200D02*
X157805000Y-122627200D01*
X155145000Y-117487200D02*
X155145000Y-122627200D01*
X157805000Y-117487200D02*
X157805000Y-122627200D01*
X155145000Y-117487200D02*
X157805000Y-117487200D01*
X155145000Y-116217200D02*
X155145000Y-114887200D01*
X155145000Y-114887200D02*
X156475000Y-114887200D01*
X150439000Y-89624201D02*
X149109000Y-89624201D01*
X150439000Y-88294201D02*
X150439000Y-89624201D01*
X150439000Y-87024201D02*
X147779000Y-87024201D01*
X147779000Y-87024201D02*
X147779000Y-81884201D01*
X150439000Y-87024201D02*
X150439000Y-81884201D01*
X150439000Y-81884201D02*
X147779000Y-81884201D01*
X152645000Y-109645200D02*
X152645000Y-113645200D01*
X152645000Y-113645200D02*
X150145000Y-113645200D01*
X150145000Y-113645200D02*
X150145000Y-109645200D01*
X150145000Y-109645200D02*
X152645000Y-109645200D01*
D10*
X124324904Y-97554533D02*
X123943952Y-97821200D01*
X124324904Y-98011676D02*
X123524904Y-98011676D01*
X123524904Y-97706914D01*
X123563000Y-97630723D01*
X123601095Y-97592628D01*
X123677285Y-97554533D01*
X123791571Y-97554533D01*
X123867761Y-97592628D01*
X123905857Y-97630723D01*
X123943952Y-97706914D01*
X123943952Y-98011676D01*
X123791571Y-96868819D02*
X124324904Y-96868819D01*
X123486809Y-97059295D02*
X124058238Y-97249771D01*
X124058238Y-96754533D01*
X124324904Y-94595390D02*
X124324904Y-95052533D01*
X124324904Y-94823961D02*
X123524904Y-94823961D01*
X123639190Y-94900152D01*
X123715380Y-94976342D01*
X123753476Y-95052533D01*
X123524904Y-94100152D02*
X123524904Y-94023961D01*
X123563000Y-93947771D01*
X123601095Y-93909676D01*
X123677285Y-93871580D01*
X123829666Y-93833485D01*
X124020142Y-93833485D01*
X124172523Y-93871580D01*
X124248714Y-93909676D01*
X124286809Y-93947771D01*
X124324904Y-94023961D01*
X124324904Y-94100152D01*
X124286809Y-94176342D01*
X124248714Y-94214438D01*
X124172523Y-94252533D01*
X124020142Y-94290628D01*
X123829666Y-94290628D01*
X123677285Y-94252533D01*
X123601095Y-94214438D01*
X123563000Y-94176342D01*
X123524904Y-94100152D01*
X124324904Y-93490628D02*
X123524904Y-93490628D01*
X124020142Y-93414438D02*
X124324904Y-93185866D01*
X123791571Y-93185866D02*
X124096333Y-93490628D01*
X157306809Y-109917866D02*
X157344904Y-109803580D01*
X157344904Y-109613104D01*
X157306809Y-109536914D01*
X157268714Y-109498819D01*
X157192523Y-109460723D01*
X157116333Y-109460723D01*
X157040142Y-109498819D01*
X157002047Y-109536914D01*
X156963952Y-109613104D01*
X156925857Y-109765485D01*
X156887761Y-109841676D01*
X156849666Y-109879771D01*
X156773476Y-109917866D01*
X156697285Y-109917866D01*
X156621095Y-109879771D01*
X156583000Y-109841676D01*
X156544904Y-109765485D01*
X156544904Y-109575009D01*
X156583000Y-109460723D01*
X156544904Y-109194057D02*
X157344904Y-109003580D01*
X156773476Y-108851200D01*
X157344904Y-108698819D01*
X156544904Y-108508342D01*
X157344904Y-107784533D02*
X157344904Y-108241676D01*
X157344904Y-108013104D02*
X156544904Y-108013104D01*
X156659190Y-108089295D01*
X156735380Y-108165485D01*
X156773476Y-108241676D01*
X135126619Y-97745057D02*
X135393285Y-97745057D01*
X135507571Y-98164104D02*
X135126619Y-98164104D01*
X135126619Y-97364104D01*
X135507571Y-97364104D01*
X135812333Y-98126009D02*
X135926619Y-98164104D01*
X136117095Y-98164104D01*
X136193285Y-98126009D01*
X136231380Y-98087914D01*
X136269476Y-98011723D01*
X136269476Y-97935533D01*
X136231380Y-97859342D01*
X136193285Y-97821247D01*
X136117095Y-97783152D01*
X135964714Y-97745057D01*
X135888523Y-97706961D01*
X135850428Y-97668866D01*
X135812333Y-97592676D01*
X135812333Y-97516485D01*
X135850428Y-97440295D01*
X135888523Y-97402200D01*
X135964714Y-97364104D01*
X136155190Y-97364104D01*
X136269476Y-97402200D01*
X136612333Y-98164104D02*
X136612333Y-97364104D01*
X136917095Y-97364104D01*
X136993285Y-97402200D01*
X137031380Y-97440295D01*
X137069476Y-97516485D01*
X137069476Y-97630771D01*
X137031380Y-97706961D01*
X136993285Y-97745057D01*
X136917095Y-97783152D01*
X136612333Y-97783152D01*
X137412333Y-97859342D02*
X138021857Y-97859342D01*
X138821857Y-98164104D02*
X138364714Y-98164104D01*
X138593285Y-98164104D02*
X138593285Y-97364104D01*
X138517095Y-97478390D01*
X138440904Y-97554580D01*
X138364714Y-97592676D01*
X139126619Y-97440295D02*
X139164714Y-97402200D01*
X139240904Y-97364104D01*
X139431380Y-97364104D01*
X139507571Y-97402200D01*
X139545666Y-97440295D01*
X139583761Y-97516485D01*
X139583761Y-97592676D01*
X139545666Y-97706961D01*
X139088523Y-98164104D01*
X139583761Y-98164104D01*
X140193285Y-97745057D02*
X139926619Y-97745057D01*
X139926619Y-98164104D02*
X139926619Y-97364104D01*
X140307571Y-97364104D01*
X128134904Y-122700438D02*
X128134904Y-123081390D01*
X127334904Y-123081390D01*
X127715857Y-122433771D02*
X127715857Y-122167104D01*
X128134904Y-122052819D02*
X128134904Y-122433771D01*
X127334904Y-122433771D01*
X127334904Y-122052819D01*
X128134904Y-121709961D02*
X127334904Y-121709961D01*
X127334904Y-121519485D01*
X127373000Y-121405200D01*
X127449190Y-121329009D01*
X127525380Y-121290914D01*
X127677761Y-121252819D01*
X127792047Y-121252819D01*
X127944428Y-121290914D01*
X128020619Y-121329009D01*
X128096809Y-121405200D01*
X128134904Y-121519485D01*
X128134904Y-121709961D01*
X128134904Y-120490914D02*
X128134904Y-120948057D01*
X128134904Y-120719485D02*
X127334904Y-120719485D01*
X127449190Y-120795676D01*
X127525380Y-120871866D01*
X127563476Y-120948057D01*
X152010904Y-95014533D02*
X151629952Y-95281200D01*
X152010904Y-95471676D02*
X151210904Y-95471676D01*
X151210904Y-95166914D01*
X151249000Y-95090723D01*
X151287095Y-95052628D01*
X151363285Y-95014533D01*
X151477571Y-95014533D01*
X151553761Y-95052628D01*
X151591857Y-95090723D01*
X151629952Y-95166914D01*
X151629952Y-95471676D01*
X152010904Y-94252628D02*
X152010904Y-94709771D01*
X152010904Y-94481200D02*
X151210904Y-94481200D01*
X151325190Y-94557390D01*
X151401380Y-94633580D01*
X151439476Y-94709771D01*
X151287095Y-93020533D02*
X151249000Y-92982438D01*
X151210904Y-92906247D01*
X151210904Y-92715771D01*
X151249000Y-92639580D01*
X151287095Y-92601485D01*
X151363285Y-92563390D01*
X151439476Y-92563390D01*
X151553761Y-92601485D01*
X152010904Y-93058628D01*
X152010904Y-92563390D01*
X152010904Y-92220533D02*
X151210904Y-92220533D01*
X151706142Y-92144342D02*
X152010904Y-91915771D01*
X151477571Y-91915771D02*
X151782333Y-92220533D01*
X151210904Y-91649104D02*
X151210904Y-91115771D01*
X152010904Y-91458628D01*
X148708904Y-95014533D02*
X148327952Y-95281200D01*
X148708904Y-95471676D02*
X147908904Y-95471676D01*
X147908904Y-95166914D01*
X147947000Y-95090723D01*
X147985095Y-95052628D01*
X148061285Y-95014533D01*
X148175571Y-95014533D01*
X148251761Y-95052628D01*
X148289857Y-95090723D01*
X148327952Y-95166914D01*
X148327952Y-95471676D01*
X147985095Y-94709771D02*
X147947000Y-94671676D01*
X147908904Y-94595485D01*
X147908904Y-94405009D01*
X147947000Y-94328819D01*
X147985095Y-94290723D01*
X148061285Y-94252628D01*
X148137476Y-94252628D01*
X148251761Y-94290723D01*
X148708904Y-94747866D01*
X148708904Y-94252628D01*
X147985095Y-93020533D02*
X147947000Y-92982438D01*
X147908904Y-92906247D01*
X147908904Y-92715771D01*
X147947000Y-92639580D01*
X147985095Y-92601485D01*
X148061285Y-92563390D01*
X148137476Y-92563390D01*
X148251761Y-92601485D01*
X148708904Y-93058628D01*
X148708904Y-92563390D01*
X148708904Y-92220533D02*
X147908904Y-92220533D01*
X148404142Y-92144342D02*
X148708904Y-91915771D01*
X148175571Y-91915771D02*
X148480333Y-92220533D01*
X147908904Y-91649104D02*
X147908904Y-91115771D01*
X148708904Y-91458628D01*
X161154904Y-115588533D02*
X160773952Y-115855200D01*
X161154904Y-116045676D02*
X160354904Y-116045676D01*
X160354904Y-115740914D01*
X160393000Y-115664723D01*
X160431095Y-115626628D01*
X160507285Y-115588533D01*
X160621571Y-115588533D01*
X160697761Y-115626628D01*
X160735857Y-115664723D01*
X160773952Y-115740914D01*
X160773952Y-116045676D01*
X160354904Y-115321866D02*
X160354904Y-114826628D01*
X160659666Y-115093295D01*
X160659666Y-114979009D01*
X160697761Y-114902819D01*
X160735857Y-114864723D01*
X160812047Y-114826628D01*
X161002523Y-114826628D01*
X161078714Y-114864723D01*
X161116809Y-114902819D01*
X161154904Y-114979009D01*
X161154904Y-115207580D01*
X161116809Y-115283771D01*
X161078714Y-115321866D01*
X161154904Y-112629390D02*
X161154904Y-113086533D01*
X161154904Y-112857961D02*
X160354904Y-112857961D01*
X160469190Y-112934152D01*
X160545380Y-113010342D01*
X160583476Y-113086533D01*
X160354904Y-112134152D02*
X160354904Y-112057961D01*
X160393000Y-111981771D01*
X160431095Y-111943676D01*
X160507285Y-111905580D01*
X160659666Y-111867485D01*
X160850142Y-111867485D01*
X161002523Y-111905580D01*
X161078714Y-111943676D01*
X161116809Y-111981771D01*
X161154904Y-112057961D01*
X161154904Y-112134152D01*
X161116809Y-112210342D01*
X161078714Y-112248438D01*
X161002523Y-112286533D01*
X160850142Y-112324628D01*
X160659666Y-112324628D01*
X160507285Y-112286533D01*
X160431095Y-112248438D01*
X160393000Y-112210342D01*
X160354904Y-112134152D01*
X161154904Y-111524628D02*
X160354904Y-111524628D01*
X160850142Y-111448438D02*
X161154904Y-111219866D01*
X160621571Y-111219866D02*
X160926333Y-111524628D01*
X153026904Y-101872533D02*
X152645952Y-102139200D01*
X153026904Y-102329676D02*
X152226904Y-102329676D01*
X152226904Y-102024914D01*
X152265000Y-101948723D01*
X152303095Y-101910628D01*
X152379285Y-101872533D01*
X152493571Y-101872533D01*
X152569761Y-101910628D01*
X152607857Y-101948723D01*
X152645952Y-102024914D01*
X152645952Y-102329676D01*
X152226904Y-101148723D02*
X152226904Y-101529676D01*
X152607857Y-101567771D01*
X152569761Y-101529676D01*
X152531666Y-101453485D01*
X152531666Y-101263009D01*
X152569761Y-101186819D01*
X152607857Y-101148723D01*
X152684047Y-101110628D01*
X152874523Y-101110628D01*
X152950714Y-101148723D01*
X152988809Y-101186819D01*
X153026904Y-101263009D01*
X153026904Y-101453485D01*
X152988809Y-101529676D01*
X152950714Y-101567771D01*
X153026904Y-98913390D02*
X153026904Y-99370533D01*
X153026904Y-99141961D02*
X152226904Y-99141961D01*
X152341190Y-99218152D01*
X152417380Y-99294342D01*
X152455476Y-99370533D01*
X152226904Y-98418152D02*
X152226904Y-98341961D01*
X152265000Y-98265771D01*
X152303095Y-98227676D01*
X152379285Y-98189580D01*
X152531666Y-98151485D01*
X152722142Y-98151485D01*
X152874523Y-98189580D01*
X152950714Y-98227676D01*
X152988809Y-98265771D01*
X153026904Y-98341961D01*
X153026904Y-98418152D01*
X152988809Y-98494342D01*
X152950714Y-98532438D01*
X152874523Y-98570533D01*
X152722142Y-98608628D01*
X152531666Y-98608628D01*
X152379285Y-98570533D01*
X152303095Y-98532438D01*
X152265000Y-98494342D01*
X152226904Y-98418152D01*
X153026904Y-97808628D02*
X152226904Y-97808628D01*
X152722142Y-97732438D02*
X153026904Y-97503866D01*
X152493571Y-97503866D02*
X152798333Y-97808628D01*
X148708904Y-101872533D02*
X148327952Y-102139200D01*
X148708904Y-102329676D02*
X147908904Y-102329676D01*
X147908904Y-102024914D01*
X147947000Y-101948723D01*
X147985095Y-101910628D01*
X148061285Y-101872533D01*
X148175571Y-101872533D01*
X148251761Y-101910628D01*
X148289857Y-101948723D01*
X148327952Y-102024914D01*
X148327952Y-102329676D01*
X147908904Y-101186819D02*
X147908904Y-101339200D01*
X147947000Y-101415390D01*
X147985095Y-101453485D01*
X148099380Y-101529676D01*
X148251761Y-101567771D01*
X148556523Y-101567771D01*
X148632714Y-101529676D01*
X148670809Y-101491580D01*
X148708904Y-101415390D01*
X148708904Y-101263009D01*
X148670809Y-101186819D01*
X148632714Y-101148723D01*
X148556523Y-101110628D01*
X148366047Y-101110628D01*
X148289857Y-101148723D01*
X148251761Y-101186819D01*
X148213666Y-101263009D01*
X148213666Y-101415390D01*
X148251761Y-101491580D01*
X148289857Y-101529676D01*
X148366047Y-101567771D01*
X148708904Y-98913390D02*
X148708904Y-99370533D01*
X148708904Y-99141961D02*
X147908904Y-99141961D01*
X148023190Y-99218152D01*
X148099380Y-99294342D01*
X148137476Y-99370533D01*
X147908904Y-98418152D02*
X147908904Y-98341961D01*
X147947000Y-98265771D01*
X147985095Y-98227676D01*
X148061285Y-98189580D01*
X148213666Y-98151485D01*
X148404142Y-98151485D01*
X148556523Y-98189580D01*
X148632714Y-98227676D01*
X148670809Y-98265771D01*
X148708904Y-98341961D01*
X148708904Y-98418152D01*
X148670809Y-98494342D01*
X148632714Y-98532438D01*
X148556523Y-98570533D01*
X148404142Y-98608628D01*
X148213666Y-98608628D01*
X148061285Y-98570533D01*
X147985095Y-98532438D01*
X147947000Y-98494342D01*
X147908904Y-98418152D01*
X148708904Y-97808628D02*
X147908904Y-97808628D01*
X148404142Y-97732438D02*
X148708904Y-97503866D01*
X148175571Y-97503866D02*
X148480333Y-97808628D01*
X128134904Y-114064533D02*
X127753952Y-114331200D01*
X128134904Y-114521676D02*
X127334904Y-114521676D01*
X127334904Y-114216914D01*
X127373000Y-114140723D01*
X127411095Y-114102628D01*
X127487285Y-114064533D01*
X127601571Y-114064533D01*
X127677761Y-114102628D01*
X127715857Y-114140723D01*
X127753952Y-114216914D01*
X127753952Y-114521676D01*
X127334904Y-113797866D02*
X127334904Y-113264533D01*
X128134904Y-113607390D01*
X127334904Y-112165771D02*
X127334904Y-111670533D01*
X127639666Y-111937200D01*
X127639666Y-111822914D01*
X127677761Y-111746723D01*
X127715857Y-111708628D01*
X127792047Y-111670533D01*
X127982523Y-111670533D01*
X128058714Y-111708628D01*
X128096809Y-111746723D01*
X128134904Y-111822914D01*
X128134904Y-112051485D01*
X128096809Y-112127676D01*
X128058714Y-112165771D01*
X127334904Y-111403866D02*
X127334904Y-110908628D01*
X127639666Y-111175295D01*
X127639666Y-111061009D01*
X127677761Y-110984819D01*
X127715857Y-110946723D01*
X127792047Y-110908628D01*
X127982523Y-110908628D01*
X128058714Y-110946723D01*
X128096809Y-110984819D01*
X128134904Y-111061009D01*
X128134904Y-111289580D01*
X128096809Y-111365771D01*
X128058714Y-111403866D01*
X127334904Y-110413390D02*
X127334904Y-110337200D01*
X127373000Y-110261009D01*
X127411095Y-110222914D01*
X127487285Y-110184819D01*
X127639666Y-110146723D01*
X127830142Y-110146723D01*
X127982523Y-110184819D01*
X128058714Y-110222914D01*
X128096809Y-110261009D01*
X128134904Y-110337200D01*
X128134904Y-110413390D01*
X128096809Y-110489580D01*
X128058714Y-110527676D01*
X127982523Y-110565771D01*
X127830142Y-110603866D01*
X127639666Y-110603866D01*
X127487285Y-110565771D01*
X127411095Y-110527676D01*
X127373000Y-110489580D01*
X127334904Y-110413390D01*
X156208333Y-113449104D02*
X156208333Y-114020533D01*
X156170238Y-114134819D01*
X156094047Y-114211009D01*
X155979761Y-114249104D01*
X155903571Y-114249104D01*
X157008333Y-114249104D02*
X156551190Y-114249104D01*
X156779761Y-114249104D02*
X156779761Y-113449104D01*
X156703571Y-113563390D01*
X156627380Y-113639580D01*
X156551190Y-113677676D01*
X148328047Y-90506057D02*
X148061380Y-90506057D01*
X148061380Y-90925104D02*
X148061380Y-90125104D01*
X148442333Y-90125104D01*
X148632809Y-90125104D02*
X149089952Y-90125104D01*
X148861380Y-90925104D02*
X148861380Y-90125104D01*
X149356619Y-90925104D02*
X149356619Y-90125104D01*
X149547095Y-90125104D01*
X149661380Y-90163200D01*
X149737571Y-90239390D01*
X149775666Y-90315580D01*
X149813761Y-90467961D01*
X149813761Y-90582247D01*
X149775666Y-90734628D01*
X149737571Y-90810819D01*
X149661380Y-90887009D01*
X149547095Y-90925104D01*
X149356619Y-90925104D01*
X150156619Y-90925104D02*
X150156619Y-90125104D01*
M02*
