M48
; DRILL file {KiCad (5.1.0)-1} date 21/06/2019 08:53:16
; FORMAT={-:-/ absolute / inch / decimal}
; #@! TF.CreationDate,2019-06-21T08:53:16-04:00
; #@! TF.GenerationSoftware,Kicad,Pcbnew,(5.1.0)-1
; #@! TF.FileFunction,Plated,1,2,PTH
FMAT,2
INCH
T1C0.0236
T2C0.0276
T3C0.0295
T4C0.0300
T5C0.0315
T6C0.0354
T7C0.0358
T8C0.0394
T9C0.0433
T10C0.0630
%
G90
G05
T1
X5.8604Y-4.1255
T2
X5.9004Y-3.6255
X5.0904Y-4.3755
X5.0904Y-4.4755
X6.0304Y-3.6255
X6.0304Y-3.7255
X5.9004Y-3.7255
T3
X5.2804Y-4.3555
X5.2804Y-4.4055
X5.2804Y-4.4555
T4
X6.1504Y-3.2355
X6.1504Y-3.3355
X6.1504Y-3.4355
X6.1504Y-3.5355
X6.1504Y-3.6355
X6.1504Y-3.7355
T5
X6.0904Y-3.8755
X6.0904Y-3.9755
X5.9204Y-3.8755
X5.9204Y-3.9755
X6.4104Y-4.4355
X6.4104Y-4.5355
X5.9604Y-4.3463
X5.9604Y-4.4447
X4.9604Y-3.7255
X4.9604Y-3.8255
X5.9304Y-4.6762
X5.9304Y-4.7747
T6
X6.4204Y-3.9171
X6.4204Y-4.0155
X6.4204Y-4.1139
T7
X5.1604Y-4.6955
X5.2604Y-4.6955
T8
X5.8704Y-3.2761
X5.8704Y-3.3761
X5.8704Y-3.4761
X6.0204Y-3.2777
X6.0204Y-3.3777
X6.1604Y-4.5755
X6.1604Y-4.6755
X6.1604Y-4.7755
T9
X6.0819Y-4.1575
X6.0819Y-4.4134
X6.259Y-4.1575
X6.259Y-4.4134
T10
X5.6104Y-4.2855
X5.6104Y-4.5217
X5.7955Y-4.4036
T0
M30
